# xmcd CD database file
#
# Track frame offsets:
#	150
#	15838
#	28675
#	43225
#	55988
#	69350
#	85250
#	100488
#	114963
#	129463
#	143563
#	156363
#	169663
#	183363
#	198450
#	213350
#	228500
#	240388
#
# Disc length: 3381 seconds
#
# Revision: 3
# Processed by: cddbd v1.5.2PL0 Copyright (c) Steve Scherf et al.
# Submitted via: CDex 1.51
#
DISCID=ed0d3312
DTITLE=var - Piano Blues -  Vol. 2 - The Thirties (1930 - 1939)
DYEAR=1930
DGENRE=Blues
TTITLE0=Judson Brown - You Don´t Know My Mind Blues (1930)
TTITLE1=Pigmeat Terry - Moaning the Blues (1935)
TTITLE2=Pigmeat Terry - Black Sheep Blues (1935)
TTITLE3=Harry ''Freddie'' Shayne - Original Mr. Freddie Blues (1935)
TTITLE4=Harry ''Freddie'' Shayne - Lonesome Man Blues (1935)
TTITLE5=Bob Robinson - Down in the Alley (1936)
TTITLE6=Bob Robinson - Makin´ a Fool out of Me (1936)
TTITLE7=Bob Robinson - Can Use It Myself (1936)
TTITLE8=Bob Robinson - She´s a Mellow Thing (1936)
TTITLE9=Albert Clemens - Policy Blues (1935)
TTITLE10=Jesse James - Sweet Patuni (1936)
TTITLE11=Jesse James /Southern Casey Jones (1936)
TTITLE12=Jesse James - Lonesome Day Blues (1936)
TTITLE13=Jesse James - Highway 61 (1936)
TTITLE14=Frank Busby - `Leven Light City (1937)
TTITLE15=Frank Busby - Prisoner Bound (1937)
TTITLE16=James Carter - Death Letter Blues (1939)
TTITLE17=James Carter - Death Cell Blues (1939)
EXTD=YEAR: 1930
EXTT0=
EXTT1=
EXTT2=
EXTT3=
EXTT4=
EXTT5=
EXTT6=
EXTT7=
EXTT8=
EXTT9=
EXTT10=
EXTT11=
EXTT12=
EXTT13=
EXTT14=
EXTT15=
EXTT16=
EXTT17=
PLAYORDER=
